<mxfile host="app.diagrams.net" agent="Mozilla/5.0 (Windows NT 10.0; Win64; x64) AppleWebKit/537.36 (KHTML, like Gecko) Chrome/141.0.0.0 Safari/537.36 Edg/141.0.0.0" version="28.2.8">
  <diagram name="Page-1" id="0783ab3e-0a74-02c8-0abd-f7b4e66b4bec">
    <mxGraphModel dx="2421" dy="1313" grid="1" gridSize="10" guides="1" tooltips="1" connect="1" arrows="1" fold="1" page="1" pageScale="1" pageWidth="850" pageHeight="1100" background="none" math="0" shadow="0">
      <root>
        <mxCell id="0" />
        <mxCell id="1" parent="0" />
        <mxCell id="1c1d494c118603dd-1" value="Facility Maintenance Flow" style="swimlane;html=1;childLayout=stackLayout;startSize=20;rounded=0;shadow=0;comic=0;labelBackgroundColor=none;strokeWidth=1;fontFamily=Verdana;fontSize=12;align=center;" parent="1" vertex="1">
          <mxGeometry x="40" y="20" width="750" height="1110" as="geometry" />
        </mxCell>
        <mxCell id="1c1d494c118603dd-2" value="Student" style="swimlane;html=1;startSize=20;" parent="1c1d494c118603dd-1" vertex="1">
          <mxGeometry y="20" width="250" height="1090" as="geometry">
            <mxRectangle y="20" width="40" height="970" as="alternateBounds" />
          </mxGeometry>
        </mxCell>
        <mxCell id="de69QylrQY8RKdQ_3Iyf-3" style="edgeStyle=orthogonalEdgeStyle;rounded=0;orthogonalLoop=1;jettySize=auto;html=1;entryX=0.5;entryY=0;entryDx=0;entryDy=0;" edge="1" parent="1c1d494c118603dd-2" source="de69QylrQY8RKdQ_3Iyf-1" target="de69QylrQY8RKdQ_3Iyf-2">
          <mxGeometry relative="1" as="geometry" />
        </mxCell>
        <mxCell id="de69QylrQY8RKdQ_3Iyf-1" value="" style="ellipse;whiteSpace=wrap;html=1;rounded=0;shadow=0;comic=0;labelBackgroundColor=none;strokeWidth=1;fillColor=#000000;fontFamily=Verdana;fontSize=12;align=center;" vertex="1" parent="1c1d494c118603dd-2">
          <mxGeometry x="105" y="40" width="40" height="40" as="geometry" />
        </mxCell>
        <mxCell id="de69QylrQY8RKdQ_3Iyf-2" value="Fill and submit maintenance request" style="rounded=1;whiteSpace=wrap;html=1;shadow=0;comic=0;labelBackgroundColor=none;strokeWidth=1;fontFamily=Verdana;fontSize=12;align=center;arcSize=50;" vertex="1" parent="1c1d494c118603dd-2">
          <mxGeometry x="52.5" y="130" width="145" height="50" as="geometry" />
        </mxCell>
        <mxCell id="de69QylrQY8RKdQ_3Iyf-25" style="edgeStyle=orthogonalEdgeStyle;rounded=0;orthogonalLoop=1;jettySize=auto;html=1;entryX=0.5;entryY=0;entryDx=0;entryDy=0;" edge="1" parent="1c1d494c118603dd-2" source="de69QylrQY8RKdQ_3Iyf-20" target="de69QylrQY8RKdQ_3Iyf-22">
          <mxGeometry relative="1" as="geometry" />
        </mxCell>
        <mxCell id="de69QylrQY8RKdQ_3Iyf-20" value="View maintenance result" style="whiteSpace=wrap;html=1;fontFamily=Verdana;rounded=1;shadow=0;comic=0;labelBackgroundColor=none;strokeWidth=1;arcSize=50;" vertex="1" parent="1c1d494c118603dd-2">
          <mxGeometry x="60" y="615" width="120" height="60" as="geometry" />
        </mxCell>
        <mxCell id="de69QylrQY8RKdQ_3Iyf-22" value="Rate the service?" style="rhombus;whiteSpace=wrap;html=1;fontColor=#000000;fillColor=#ffffc0;strokeColor=light-dark(#FF0000,#FFFFFF);" vertex="1" parent="1c1d494c118603dd-2">
          <mxGeometry x="70" y="710" width="100" height="60" as="geometry" />
        </mxCell>
        <mxCell id="de69QylrQY8RKdQ_3Iyf-23" value="no" style="edgeStyle=orthogonalEdgeStyle;html=1;align=left;verticalAlign=bottom;endArrow=classic;strokeColor=light-dark(#FF0000,#FFFFFF);rounded=0;entryX=0.75;entryY=0;entryDx=0;entryDy=0;endFill=1;" edge="1" source="de69QylrQY8RKdQ_3Iyf-22" parent="1c1d494c118603dd-2" target="de69QylrQY8RKdQ_3Iyf-27">
          <mxGeometry x="-1" relative="1" as="geometry">
            <mxPoint x="190" y="820" as="targetPoint" />
            <Array as="points">
              <mxPoint x="210" y="740" />
              <mxPoint x="210" y="900" />
              <mxPoint x="157" y="900" />
            </Array>
          </mxGeometry>
        </mxCell>
        <mxCell id="de69QylrQY8RKdQ_3Iyf-24" value="yes" style="edgeStyle=orthogonalEdgeStyle;html=1;align=left;verticalAlign=top;endArrow=open;endSize=8;strokeColor=light-dark(#FF0000,#FFFFFF);rounded=0;" edge="1" source="de69QylrQY8RKdQ_3Iyf-22" parent="1c1d494c118603dd-2">
          <mxGeometry x="-1" relative="1" as="geometry">
            <mxPoint x="120" y="820" as="targetPoint" />
          </mxGeometry>
        </mxCell>
        <mxCell id="de69QylrQY8RKdQ_3Iyf-28" style="edgeStyle=orthogonalEdgeStyle;rounded=0;orthogonalLoop=1;jettySize=auto;html=1;entryX=0.5;entryY=0;entryDx=0;entryDy=0;" edge="1" parent="1c1d494c118603dd-2" source="de69QylrQY8RKdQ_3Iyf-26" target="de69QylrQY8RKdQ_3Iyf-27">
          <mxGeometry relative="1" as="geometry" />
        </mxCell>
        <mxCell id="de69QylrQY8RKdQ_3Iyf-26" value="Submit service rating and feedback" style="whiteSpace=wrap;html=1;fontFamily=Verdana;rounded=1;shadow=0;comic=0;labelBackgroundColor=none;strokeWidth=1;arcSize=50;" vertex="1" parent="1c1d494c118603dd-2">
          <mxGeometry x="60" y="820" width="120" height="60" as="geometry" />
        </mxCell>
        <mxCell id="de69QylrQY8RKdQ_3Iyf-30" style="edgeStyle=orthogonalEdgeStyle;rounded=0;orthogonalLoop=1;jettySize=auto;html=1;entryX=0.5;entryY=0;entryDx=0;entryDy=0;" edge="1" parent="1c1d494c118603dd-2" source="de69QylrQY8RKdQ_3Iyf-27" target="de69QylrQY8RKdQ_3Iyf-29">
          <mxGeometry relative="1" as="geometry" />
        </mxCell>
        <mxCell id="de69QylrQY8RKdQ_3Iyf-27" value="" style="whiteSpace=wrap;html=1;rounded=0;shadow=0;comic=0;labelBackgroundColor=none;strokeWidth=1;fillColor=#000000;fontFamily=Verdana;fontSize=12;align=center;rotation=0;" vertex="1" parent="1c1d494c118603dd-2">
          <mxGeometry x="46.5" y="940" width="147" height="10" as="geometry" />
        </mxCell>
        <mxCell id="de69QylrQY8RKdQ_3Iyf-29" value="" style="shape=mxgraph.bpmn.shape;html=1;verticalLabelPosition=bottom;labelBackgroundColor=#ffffff;verticalAlign=top;perimeter=ellipsePerimeter;outline=end;symbol=terminate;rounded=0;shadow=0;comic=0;strokeWidth=1;fontFamily=Verdana;fontSize=12;align=center;" vertex="1" parent="1c1d494c118603dd-2">
          <mxGeometry x="100" y="1000" width="40" height="40" as="geometry" />
        </mxCell>
        <mxCell id="1c1d494c118603dd-3" value="System" style="swimlane;html=1;startSize=20;" parent="1c1d494c118603dd-1" vertex="1">
          <mxGeometry x="250" y="20" width="250" height="1090" as="geometry" />
        </mxCell>
        <mxCell id="de69QylrQY8RKdQ_3Iyf-7" value="" style="edgeStyle=orthogonalEdgeStyle;rounded=0;orthogonalLoop=1;jettySize=auto;html=1;" edge="1" parent="1c1d494c118603dd-3" source="de69QylrQY8RKdQ_3Iyf-4" target="de69QylrQY8RKdQ_3Iyf-6">
          <mxGeometry relative="1" as="geometry" />
        </mxCell>
        <mxCell id="de69QylrQY8RKdQ_3Iyf-4" value="Receive request and create work order" style="rounded=1;whiteSpace=wrap;html=1;shadow=0;comic=0;labelBackgroundColor=none;strokeWidth=1;fontFamily=Verdana;fontSize=12;align=center;arcSize=50;" vertex="1" parent="1c1d494c118603dd-3">
          <mxGeometry x="50" y="130" width="150" height="50" as="geometry" />
        </mxCell>
        <mxCell id="de69QylrQY8RKdQ_3Iyf-9" value="" style="edgeStyle=orthogonalEdgeStyle;rounded=0;orthogonalLoop=1;jettySize=auto;html=1;" edge="1" parent="1c1d494c118603dd-3" source="de69QylrQY8RKdQ_3Iyf-6" target="de69QylrQY8RKdQ_3Iyf-8">
          <mxGeometry relative="1" as="geometry" />
        </mxCell>
        <mxCell id="de69QylrQY8RKdQ_3Iyf-6" value="Execute intelligent dispatch" style="whiteSpace=wrap;html=1;fontFamily=Verdana;rounded=1;shadow=0;comic=0;labelBackgroundColor=none;strokeWidth=1;arcSize=50;" vertex="1" parent="1c1d494c118603dd-3">
          <mxGeometry x="65" y="240" width="120" height="60" as="geometry" />
        </mxCell>
        <mxCell id="de69QylrQY8RKdQ_3Iyf-8" value="Push work order to Maintenance Staff" style="whiteSpace=wrap;html=1;fontFamily=Verdana;rounded=1;shadow=0;comic=0;labelBackgroundColor=none;strokeWidth=1;arcSize=50;" vertex="1" parent="1c1d494c118603dd-3">
          <mxGeometry x="65" y="360" width="120" height="60" as="geometry" />
        </mxCell>
        <mxCell id="de69QylrQY8RKdQ_3Iyf-19" value="" style="edgeStyle=orthogonalEdgeStyle;rounded=0;orthogonalLoop=1;jettySize=auto;html=1;" edge="1" parent="1c1d494c118603dd-3" source="de69QylrQY8RKdQ_3Iyf-16" target="de69QylrQY8RKdQ_3Iyf-18">
          <mxGeometry relative="1" as="geometry" />
        </mxCell>
        <mxCell id="de69QylrQY8RKdQ_3Iyf-16" value="Update order status to &quot;Completed&quot;" style="whiteSpace=wrap;html=1;fontFamily=Verdana;rounded=1;shadow=0;comic=0;labelBackgroundColor=none;strokeWidth=1;arcSize=50;" vertex="1" parent="1c1d494c118603dd-3">
          <mxGeometry x="65" y="470" width="120" height="60" as="geometry" />
        </mxCell>
        <mxCell id="de69QylrQY8RKdQ_3Iyf-18" value="Send &quot;Maintenance Completed&quot; notification to Student" style="whiteSpace=wrap;html=1;fontFamily=Verdana;rounded=1;shadow=0;comic=0;labelBackgroundColor=none;strokeWidth=1;arcSize=50;" vertex="1" parent="1c1d494c118603dd-3">
          <mxGeometry x="42.5" y="600" width="165" height="90" as="geometry" />
        </mxCell>
        <mxCell id="1c1d494c118603dd-4" value="Maintenance Staff" style="swimlane;html=1;startSize=20;" parent="1c1d494c118603dd-1" vertex="1">
          <mxGeometry x="500" y="20" width="250" height="1090" as="geometry" />
        </mxCell>
        <mxCell id="de69QylrQY8RKdQ_3Iyf-15" value="" style="edgeStyle=orthogonalEdgeStyle;rounded=0;orthogonalLoop=1;jettySize=auto;html=1;" edge="1" parent="1c1d494c118603dd-4" source="de69QylrQY8RKdQ_3Iyf-13" target="de69QylrQY8RKdQ_3Iyf-14">
          <mxGeometry relative="1" as="geometry" />
        </mxCell>
        <mxCell id="de69QylrQY8RKdQ_3Iyf-13" value="Receive and accept work order" style="whiteSpace=wrap;html=1;fontFamily=Verdana;rounded=1;shadow=0;comic=0;labelBackgroundColor=none;strokeWidth=1;arcSize=50;" vertex="1" parent="1c1d494c118603dd-4">
          <mxGeometry x="60" y="360" width="125" height="60" as="geometry" />
        </mxCell>
        <mxCell id="de69QylrQY8RKdQ_3Iyf-14" value="Submit maintenance completion report" style="whiteSpace=wrap;html=1;fontFamily=Verdana;rounded=1;shadow=0;comic=0;labelBackgroundColor=none;strokeWidth=1;arcSize=50;" vertex="1" parent="1c1d494c118603dd-4">
          <mxGeometry x="56.25" y="470" width="132.5" height="60" as="geometry" />
        </mxCell>
        <mxCell id="de69QylrQY8RKdQ_3Iyf-5" style="edgeStyle=orthogonalEdgeStyle;rounded=0;orthogonalLoop=1;jettySize=auto;html=1;entryX=0;entryY=0.5;entryDx=0;entryDy=0;" edge="1" parent="1c1d494c118603dd-1" source="de69QylrQY8RKdQ_3Iyf-2" target="de69QylrQY8RKdQ_3Iyf-4">
          <mxGeometry relative="1" as="geometry">
            <Array as="points">
              <mxPoint x="290" y="175" />
              <mxPoint x="290" y="175" />
            </Array>
          </mxGeometry>
        </mxCell>
        <mxCell id="de69QylrQY8RKdQ_3Iyf-12" style="edgeStyle=orthogonalEdgeStyle;rounded=0;orthogonalLoop=1;jettySize=auto;html=1;entryX=0;entryY=0.5;entryDx=0;entryDy=0;" edge="1" parent="1c1d494c118603dd-1" source="de69QylrQY8RKdQ_3Iyf-8" target="de69QylrQY8RKdQ_3Iyf-13">
          <mxGeometry relative="1" as="geometry">
            <mxPoint x="580" y="410" as="targetPoint" />
          </mxGeometry>
        </mxCell>
        <mxCell id="de69QylrQY8RKdQ_3Iyf-17" value="" style="edgeStyle=orthogonalEdgeStyle;rounded=0;orthogonalLoop=1;jettySize=auto;html=1;" edge="1" parent="1c1d494c118603dd-1" source="de69QylrQY8RKdQ_3Iyf-14" target="de69QylrQY8RKdQ_3Iyf-16">
          <mxGeometry relative="1" as="geometry" />
        </mxCell>
        <mxCell id="de69QylrQY8RKdQ_3Iyf-21" value="" style="edgeStyle=orthogonalEdgeStyle;rounded=0;orthogonalLoop=1;jettySize=auto;html=1;" edge="1" parent="1c1d494c118603dd-1" source="de69QylrQY8RKdQ_3Iyf-18" target="de69QylrQY8RKdQ_3Iyf-20">
          <mxGeometry relative="1" as="geometry" />
        </mxCell>
      </root>
    </mxGraphModel>
  </diagram>
</mxfile>
